PathFileType	4	(X/Y/Z)	/Users/itak/Documents/Research/Walk-IL/dataset/trc/00101_00007.trc
DataRate	CameraRate	NumFrames	NumMarkers	Units	OrigDataRate	OrigDataStartFrame	OrigNumFrames
100.000000	100.000000	4	53	mm	100.000000	435	580
Frame#	Time	RPSI			LPSI			L3			STRN			T10			C7			CLAV			RBAK			LBAK			LSHO			LUPA			LAEL			LAOL			LWTS			LWPS			LFRA			LIFD			LHPS			LHTS			RSHO			RUPA			RAEL			RAOL			RWTS			RWPS			RFRA			RIFD			RHTS			RHPS			RBHD			LFHD			RFHD			LBHD			LHIP			RHIP			RASI			LASI			LKNE			LTHI			LANK			LTIP			LTOE			LMT1			LMT5			LHEE			RKNE			RTHI			RANK			RTIP			RTOE			RMT1			RMT5			RHEE			
		X1	Y1	Z1	X2	Y2	Z2	X3	Y3	Z3	X4	Y4	Z4	X5	Y5	Z5	X6	Y6	Z6	X7	Y7	Z7	X8	Y8	Z8	X9	Y9	Z9	X10	Y10	Z10	X11	Y11	Z11	X12	Y12	Z12	X13	Y13	Z13	X14	Y14	Z14	X15	Y15	Z15	X16	Y16	Z16	X17	Y17	Z17	X18	Y18	Z18	X19	Y19	Z19	X20	Y20	Z20	X21	Y21	Z21	X22	Y22	Z22	X23	Y23	Z23	X24	Y24	Z24	X25	Y25	Z25	X26	Y26	Z26	X27	Y27	Z27	X28	Y28	Z28	X29	Y29	Z29	X30	Y30	Z30	X31	Y31	Z31	X32	Y32	Z32	X33	Y33	Z33	X34	Y34	Z34	X35	Y35	Z35	X36	Y36	Z36	X37	Y37	Z37	X38	Y38	Z38	X39	Y39	Z39	X40	Y40	Z40	X41	Y41	Z41	X42	Y42	Z42	X43	Y43	Z43	X44	Y44	Z44	X45	Y45	Z45	X46	Y46	Z46	X47	Y47	Z47	X48	Y48	Z48	X49	Y49	Z49	X50	Y50	Z50	X51	Y51	Z51	X52	Y52	Z52	X53	Y53	Z53	

436	4.350000000000001	233.1283721923828	1118.033935546875	-217.8355255126953	217.5315093994141	1117.248168945312	-352.7460632324219	216.6982727050781	1154.580078125	-285.4682922363281	432.8952026367188	1363.731689453125	-311.985107421875	185.1892852783203	1305.72119140625	-275.0465393066406	210.7059936523438	1599.43994140625	-295.9608764648438	393.2541198730469	1497.427612304688	-312.8868103027344	173.1997833251953	1415.4521484375	-197.5638580322266	188.7023773193359	1579.125122070312	-394.8556213378906	264.8151245117188	1565.27587890625	-476.3307189941406	227.4122009277344	1432.314208984375	-537.27783203125	217.3181610107422	1213.863403320312	-551.604736328125	171.8931884765625	1207.010131835938	-477.8073425292969	306.3099060058594	950.236328125	-530.987548828125	217.6453399658203	930.1538696289062	-531.552978515625	222.6949920654297	1096.640747070312	-556.1041259765625	306.7857971191406	755.9364013671875	-499.2970581054688	239.0803070068359	852.5042114257812	-535.8977661132812	310.1186218261719	858.223876953125	-540.6650390625	292.5278625488281	1583.775512695312	-124.2218322753906	293.4211120605469	1511.448486328125	-56.78333282470703	341.9035949707031	1221.211181640625	-18.83510398864746	321.5818481445312	1210.407348632812	-113.1087875366211	534.6615600585938	1016.360412597656	-35.93098068237305	469.8226928710938	984.8910522460938	3.383042097091675	383.5871276855469	1156.136108398438	-2.779880285263062	603.9285278320312	832.3490600585938	-44.00027847290039	589.4234008789062	918.5964965820312	-27.3919506072998	529.5464477539062	897.3175659179688	9.061429023742676	258.8787536621094	1769.206665039062	-224.5768432617188	405.96630859375	1842.5908203125	-372.3651428222656	417.8206787109375	1846.019897460938	-243.1215209960938	237.5531158447266	1769.4423828125	-359.6926879882812	307.0521545410156	1036.681274414062	-473.8490600585938	375.1822204589844	1031.7255859375	-112.4120712280273	447.2329406738281	1107.269653320312	-172.6563720703125	413.7018432617188	1109.125732421875	-437.302978515625	514.1654663085938	558.6175537109375	-462.1868896484375	434.64599609375	694.9877319335938	-480.864501953125	224.280517578125	111.3529815673828	-472.3003540039062	330.3439331054688	351.5138854980469	-487.75830078125	446.9759826660156	56.28595733642578	-450.8843383789062	379.516357421875	74.54293060302734	-405.5831298828125	334.952880859375	71.06678771972656	-512.4664306640625	168.6824493408203	132.4210510253906	-400.4902038574219	392.9435119628906	538.3843383789062	-163.2339019775391	404.5775756835938	820.0840454101562	-127.779914855957	342.7654724121094	26.84219741821289	-216.8940277099609	381.454345703125	403.9834289550781	-159.1435394287109	574.0885009765625	39.68063735961914	-278.0863647460938	511.1015625	34.07653045654297	-316.19482421875	476.0483703613281	38.28963088989258	-198.2306213378906	283.4335327148438	32.77296829223633	-263.8576354980469	
437	4.36	236.6005249023438	1118.11767578125	-217.8696746826172	221.4024810791016	1117.420532226562	-352.8182373046875	220.3484954833984	1154.730346679688	-285.4695129394531	436.7180786132812	1363.725830078125	-311.3210754394531	189.137939453125	1305.844482421875	-274.7176513671875	214.6803283691406	1599.578857421875	-295.5134887695312	397.1004943847656	1497.415283203125	-312.27978515625	176.8454132080078	1415.610229492188	-197.1805419921875	192.7417449951172	1579.26513671875	-394.4384460449219	268.902587890625	1565.366455078125	-475.8483581542969	231.4735565185547	1432.422973632812	-536.8018188476562	221.2346038818359	1214.037231445312	-551.2355346679688	175.8015899658203	1207.233154296875	-477.4154968261719	309.0266418457031	949.9655151367188	-530.6416625976562	220.2934112548828	930.3713989257812	-531.285400390625	226.1906433105469	1096.808715820312	-555.7825927734375	308.5424194335938	755.6214599609375	-499.1584167480469	241.3732604980469	852.6199951171875	-535.709716796875	312.3866577148438	857.91357421875	-540.4219970703125	296.3753051757812	1583.823120117188	-123.7019348144531	297.2688598632812	1511.409790039062	-56.3455696105957	346.6846618652344	1221.163452148438	-18.50496482849121	326.1231689453125	1210.315307617188	-112.7627105712891	541.4268798828125	1018.356140136719	-36.49680709838867	477.1014404296875	986.0386352539062	2.940423727035522	388.893798828125	1156.319091796875	-2.635423898696899	612.861083984375	835.2215576171875	-45.13737487792969	597.4042358398438	921.2733764648438	-28.29687881469727	537.8377685546875	899.1698608398438	8.266497611999512	262.983642578125	1769.18994140625	-224.2335357666016	409.8875732421875	1842.645751953125	-372.1285400390625	421.7677612304688	1846.186889648438	-242.8905792236328	241.4882354736328	1769.394775390625	-359.3140563964844	311.5482788085938	1037.093505859375	-473.762939453125	378.2514953613281	1031.667724609375	-112.0908966064453	450.5618591308594	1107.145263671875	-172.0384063720703	417.9555969238281	1109.400634765625	-436.8102111816406	518.2305908203125	558.9473266601562	-461.3548583984375	438.6878051757812	695.1366577148438	-480.5944519042969	238.4865264892578	105.6461868286133	-473.583251953125	338.7143249511719	348.3166809082031	-488.3187561035156	462.6502685546875	57.31948471069336	-450.5080871582031	394.14599609375	73.20787048339844	-405.5591430664062	350.6366271972656	68.69031524658203	-512.8467407226562	181.7798004150391	124.9328231811523	-402.1726989746094	393.8553161621094	538.2478637695312	-163.0626373291016	406.6864624023438	819.989501953125	-127.6414794921875	342.7820739746094	26.9341869354248	-217.0268249511719	382.0308532714844	403.9437866210938	-159.0941162109375	574.1553955078125	39.65012741088867	-278.0802001953125	511.0485229492188	33.86529159545898	-316.20068359375	476.1738891601562	38.49958801269531	-198.4106750488281	283.4747009277344	32.79075241088867	-263.9249572753906	
438	4.37	239.951904296875	1118.185913085938	-217.9686431884766	225.2251434326172	1117.578125	-352.9552612304688	223.9105224609375	1154.873901367188	-285.5423583984375	440.4348449707031	1363.724731445312	-310.6446228027344	192.9513549804688	1305.968017578125	-274.5068969726562	218.5443267822266	1599.711547851562	-295.14892578125	400.8502197265625	1497.410888671875	-311.6752624511719	180.3427886962891	1415.76171875	-196.9033355712891	196.7187957763672	1579.414672851562	-394.1226806640625	272.9776306152344	1565.4794921875	-475.4206848144531	235.6182250976562	1432.556274414062	-536.4276123046875	225.3253173828125	1214.222534179688	-550.9876098632812	179.8168792724609	1207.442626953125	-477.185791015625	311.9325866699219	949.711669921875	-530.351806640625	223.1710815429688	930.6002807617188	-531.166748046875	229.9022979736328	1097.0009765625	-555.5931396484375	310.5130920410156	755.3563232421875	-499.0592651367188	243.9011077880859	852.7603759765625	-535.6392211914062	314.8523559570312	857.5878295898438	-540.2035522460938	300.0427856445312	1583.850952148438	-123.2251281738281	300.9176025390625	1511.349731445312	-55.96044921875	351.2506103515625	1221.085205078125	-18.26723098754883	330.4381713867188	1210.220336914062	-112.5291213989258	547.8641357421875	1020.26220703125	-37.18212127685547	484.0647888183594	987.153564453125	2.413396596908569	393.9411926269531	1156.471313476562	-2.597902774810791	621.3159790039062	837.97412109375	-46.38670349121094	604.9846801757812	923.8357543945312	-29.32952117919922	545.7588500976562	900.9721069335938	7.393386840820312	266.9523620605469	1769.216064453125	-223.9282073974609	413.7175903320312	1842.684814453125	-371.9224853515625	425.6073303222656	1846.354614257812	-242.685791015625	245.3192291259766	1769.307250976562	-358.9552612304688	316.0231018066406	1037.486938476562	-473.6902160644531	381.0514526367188	1031.617065429688	-111.667610168457	453.8011169433594	1107.034057617188	-171.3770904541016	422.1469421386719	1109.648559570312	-436.2864685058594	521.960693359375	559.1270751953125	-460.5342407226562	442.5850219726562	695.2274169921875	-480.3056640625	251.9144439697266	100.3647918701172	-474.7073059082031	346.6114501953125	345.2529602050781	-488.8167114257812	477.1960754394531	58.35587692260742	-449.8445739746094	407.7973937988281	72.08757019042969	-405.2954711914062	365.3753662109375	66.51932525634766	-512.97265625	194.1831512451172	117.9643325805664	-403.777099609375	394.857177734375	538.1302490234375	-162.9429931640625	408.76513671875	819.8597412109375	-127.500602722168	342.7997131347656	27.04063415527344	-217.1786956787109	382.6597290039062	403.9039916992188	-159.1045837402344	574.2235717773438	39.6098518371582	-278.0761413574219	511.040771484375	33.72346496582031	-316.2138366699219	476.2584838867188	38.64056777954102	-198.5345764160156	283.5403137207031	32.79817962646484	-264.0020141601562	
439	4.38	243.1747894287109	1118.235473632812	-218.1328582763672	229.0052642822266	1117.724975585938	-353.1583557128906	227.3885650634766	1155.011596679688	-285.6898498535156	444.0476989746094	1363.7294921875	-309.9508056640625	196.6296234130859	1306.090209960938	-274.4180297851562	222.2936859130859	1599.837646484375	-294.8712768554688	404.5051574707031	1497.415649414062	-311.0710754394531	183.6937561035156	1415.908569335938	-196.7389678955078	200.6300354003906	1579.567504882812	-393.9099426269531	277.0390625	1565.614013671875	-475.0505676269531	239.8399658203125	1432.715209960938	-536.155517578125	229.5610198974609	1214.420654296875	-550.8593139648438	183.9134826660156	1207.645141601562	-477.1181945800781	315.0438842773438	949.492919921875	-530.1271362304688	226.2906799316406	930.8404541015625	-531.196044921875	233.8086547851562	1097.218505859375	-555.5316772460938	312.7384643554688	755.1560668945312	-499.0054016113281	246.6838073730469	852.92822265625	-535.6903076171875	317.5439758300781	857.2737426757812	-540.0173950195312	303.5189819335938	1583.863403320312	-122.7937316894531	304.3614196777344	1511.27294921875	-55.62816619873047	355.5686950683594	1220.983764648438	-18.14139366149902	334.5376586914062	1210.1318359375	-112.4187240600586	553.9681396484375	1022.077270507812	-37.97032928466797	490.6947021484375	988.230712890625	1.802318453788757	398.7227172851562	1156.597900390625	-2.67345142364502	629.297607421875	840.604248046875	-47.72524261474609	612.1513671875	926.275390625	-30.46809959411621	553.29248046875	902.7145385742188	6.445161819458008	270.7845764160156	1769.2890625	-223.6585083007812	417.4593811035156	1842.703979492188	-371.7451477050781	429.3455505371094	1846.52001953125	-242.5057067871094	249.0379486083984	1769.185546875	-358.6106567382812	320.4839782714844	1037.867431640625	-473.6438903808594	383.6726684570312	1031.565063476562	-111.1345901489258	456.9657592773438	1106.934814453125	-170.6611938476562	426.2748107910156	1109.863159179688	-435.7231140136719	525.38232421875	559.1651611328125	-459.7158813476562	446.3495788574219	695.2635498046875	-479.9841003417969	264.4978332519531	95.51142120361328	-475.6435852050781	354.0397644042969	342.3212280273438	-489.2476806640625	490.5721435546875	59.36865234375	-448.8407897949219	420.4103698730469	71.16329193115234	-404.7599487304688	379.1166687011719	64.53897857666016	-512.8106689453125	205.78759765625	111.5560531616211	-405.2762756347656	395.9688110351562	538.0328979492188	-162.8731079101562	410.8211975097656	819.7011108398438	-127.3535766601562	342.81884765625	27.15948677062988	-217.3449249267578	383.3591003417969	403.8624572753906	-159.1757507324219	574.294677734375	39.55825805664062	-278.0726013183594	511.0731506347656	33.63610076904297	-316.22900390625	476.2865295410156	38.68656158447266	-198.5809173583984	283.6427612304688	32.79368591308594	-264.0889282226562	
